<?xml version="1.0" encoding="UTF-8" standalone="no"?>
<svg
   version="1.1"
   id="Layer_1"
   x="0px"
   y="0px"
   viewBox="0 0 123.19773 92.36665"
   xml:space="preserve"
   sodipodi:docname="seal-icon.svg"
   width="123.19772"
   height="92.366653"
   inkscape:version="1.3 (0e150ed6c4, 2023-07-21)"
   xmlns:inkscape="http://www.inkscape.org/namespaces/inkscape"
   xmlns:sodipodi="http://sodipodi.sourceforge.net/DTD/sodipodi-0.dtd"
   xmlns="http://www.w3.org/2000/svg"
   xmlns:svg="http://www.w3.org/2000/svg"><defs
     id="defs1" /><sodipodi:namedview
     id="namedview1"
     pagecolor="#ffffff"
     bordercolor="#666666"
     borderopacity="1.0"
     inkscape:showpageshadow="2"
     inkscape:pageopacity="0.0"
     inkscape:pagecheckerboard="0"
     inkscape:deskcolor="#d1d1d1"
     inkscape:zoom="2.2501988"
     inkscape:cx="-1.111013"
     inkscape:cy="-16.442992"
     inkscape:window-width="2534"
     inkscape:window-height="1380"
     inkscape:window-x="10"
     inkscape:window-y="44"
     inkscape:window-maximized="1"
     inkscape:current-layer="g1" /><style
     type="text/css"
     id="style1">.st0{fill-rule:evenodd;clip-rule:evenodd;}</style><g
     id="g1"
     transform="translate(-0.00217742,-0.0053773)"><path
       class="st0"
       d="m 99.72,7.22 c 1.48,0 1.99748,0.6313466 2.72024,1.9113932 0.91945,1.6283988 -1.33573,-0.030099 -2.815727,-0.030099 -1.48,0 -3.326352,3.8311528 -3.326352,2.3611528 C 96.298161,9.9824467 98.25,7.22 99.72,7.22 Z m -8.8,66.39 c -0.6,-0.98 -1.21,-2.05 -1.77,-3.17 -1.09,-2.18 -1.98,-4.48 -2.22,-6.41 -0.04,-0.38 -1.159062,-3.38727 -1.529062,-3.33727 -0.38,0.04 0.119062,3.12727 0.169062,3.49727 0.25,2.1 1.2,4.56 2.36,6.87 0.94,1.88 2.04,3.67 3.01,5.08 2.69,5.77 13.32482,9.897069 11.66793,12.759501 C 92.827933,91.829501 83.52,90.2 76.78,82.73 c -0.01,-0.05 -0.02,-0.1 -0.04,-0.16 -0.98,-2.65 -2.45,-5.04 -4.06,-7 -1.93,-2.36 -4.07,-4.11 -5.79,-4.99 -0.34,-0.17 -2.476959,-1.195775 -2.646959,-0.855775 -0.17,0.34 1.686959,1.905775 2.026959,2.075775 1.57,0.8 3.55,2.43 5.35,4.63 1.06,1.29 2.05,2.77 2.87,4.4 C 57.63,82.57 39.507149,80.43365 20.221145,81.008217 23.034567,85.491924 37.253064,93.871332 29.68,92.14 16.44,92.92 3.4,88 0.36,80.09 -2.02,73.91 8.08,63.81 12.72,60.33 28.99,48.11 35.823947,45.285334 52.973947,40.585334 68.151235,33.796951 63.325007,32.776586 79.05,22.52 81.88,15.44 82.4,6.19 89.29,1.97 90.69,1.11 92.3,0.51 94.15,0.2 c 5.86,-0.97 7.56,1.93 13.06,3.32 0.93,0.23 1.84,0.41 2.75,0.53 2.63,0.34 7.24,-0.81 8.4,1.79 1.35,3.03 -3.19,8.9 -7.62,11.57 -2.05,1.24 -4.92,1.52 -5.55,4.28 -1.02,4.41 6.08,21.85 -0.31,36.38 -1.1,2.5 -2.52,4.8 -4.22,6.95 v 0 c 5.16,11.47 25.30726,16.872404 22.22,19.3 -9.05,1.65 -25.79,1.33 -31.96,-10.71 z"
       id="path1"
       sodipodi:nodetypes="ssssscsccccccccccscccccccccccccccccsscc"
       style="fill:#07006f;fill-opacity:1" /></g></svg>
